<?xml version="1.0" standalone="no"?>
<!DOCTYPE svg PUBLIC "-//W3C//DTD SVG 20010904//EN"
 "http://www.w3.org/TR/2001/REC-SVG-20010904/DTD/svg10.dtd">
<svg version="1.0" xmlns="http://www.w3.org/2000/svg"
 width="3125.000000pt" height="3125.000000pt" viewBox="0 0 3125.000000 3125.000000"
 preserveAspectRatio="xMidYMid meet">
<metadata>
Created by potrace 1.14, written by Peter Selinger 2001-2017
</metadata>
<g transform="translate(0.000000,3125.000000) scale(0.100000,-0.100000)"
fill="#000000" stroke="none">
<path d="M22661 24304 c-2570 -1702 -4674 -3094 -4676 -3092 -2 2 493 919
1101 2037 607 1119 1102 2036 1100 2038 -8 9 -1468 -806 -2456 -1370 -4481
-2558 -8125 -4896 -10200 -6541 -623 -494 -1004 -829 -1430 -1255 -457 -457
-714 -767 -1015 -1221 -637 -961 -1027 -2050 -1144 -3195 -33 -316 -42 -847
-21 -1161 77 -1132 416 -2213 998 -3184 732 -1219 1860 -2240 3133 -2836 768
-360 1544 -569 2419 -650 230 -22 878 -25 1105 -6 1255 105 2383 495 3403
1176 637 425 1163 913 1881 1746 1497 1736 3402 4521 5601 8190 724 1207 1842
3141 1825 3158 -3 4 -3136 -1102 -3539 -1250 l-78 -28 19 32 c18 29 6604
10429 6641 10486 8 12 12 22 10 22 -2 0 -2107 -1393 -4677 -3096z m-11430
-10504 c897 -91 1672 -556 2159 -1296 643 -978 639 -2279 -9 -3259 -201 -304
-505 -608 -808 -808 -875 -577 -2029 -646 -2963 -177 -886 446 -1471 1286
-1584 2280 -18 156 -21 487 -6 641 69 694 375 1333 866 1809 482 468 1084 742
1784 813 82 9 466 6 561 -3z"/>
</g>
</svg>
